<svg width="5198" height="3960" viewBox="0 0 5198 3960" fill="none" xmlns="http://www.w3.org/2000/svg">
<path d="M1795.34 3129.45C1293.9 3003.81 265.185 1308.05 1183.06 1838.46C2100.93 2368.86 2404.14 1667.19 2905.58 1792.84C3407.02 1918.48 2582.34 2547.74 2432.43 3146.03C2282.51 3744.32 2296.78 3255.1 1795.34 3129.45Z" fill="url(#paint0_linear)" fill-opacity="0.9"/>
<path d="M2196.61 2093.33C1705.05 2410.04 -391.219 2101.36 735.82 1721.85C1862.86 1342.35 1571.8 632.535 2063.35 315.822C2554.91 -0.890126 2378.84 1077.11 2712.91 1595.59C3046.97 2114.07 2688.16 1776.61 2196.61 2093.33Z" fill="url(#paint1_linear)" fill-opacity="0.8"/>
<path d="M3206.31 3040.69C2714.76 3357.4 1495.71 3043.93 2622.75 2664.43C3749.79 2284.92 3458.73 1575.11 3950.28 1258.4C4441.84 941.683 4265.78 2019.69 4599.84 2538.17C4933.9 3056.65 3697.86 2723.98 3206.31 3040.69Z" fill="url(#paint2_linear)" fill-opacity="0.8"/>
<path d="M2915.6 2026.17C2623.08 1519.85 3032.97 -559.003 3357.42 585.102C3681.87 1729.21 4404.95 1472.88 4697.47 1979.21C4989.99 2485.53 3921.79 2257.44 3387.73 2565.98C2853.67 2874.53 3208.12 2532.49 2915.6 2026.17Z" fill="url(#paint3_linear)" fill-opacity="0.9"/>
<path d="M627.311 1998.19C334.79 1491.87 1438.05 -278.587 1762.49 865.518C2086.94 2009.62 2116.66 1444.9 2409.18 1951.22C2701.7 2457.55 1633.5 2229.46 1099.44 2538C565.38 2846.55 919.832 2504.51 627.311 1998.19Z" fill="url(#paint4_linear)" fill-opacity="0.9"/>
<g filter="url(#filter0_dd)">
<rect x="1123.81" y="477.689" width="3057" height="2280" rx="40" fill="white"/>
</g>
<g filter="url(#filter1_i)">
<rect x="1224.81" y="756.689" width="2823" height="1861" rx="40" fill="#404040" fill-opacity="0.62"/>
</g>
<g filter="url(#filter2_i)">
<path d="M2245.81 756.689H4047.81V2617.69H2941.92C2941.92 2617.69 2695.05 2312.19 2775.48 1679.19C2855.92 1046.19 2245.81 756.689 2245.81 756.689Z" fill="#404040"/>
</g>
<path d="M1300.23 668.958V663.144H1276.74V670.303H1291.49V671.292C1291.37 679.953 1284.97 685.886 1275.71 685.886C1264.83 685.886 1258.07 677.462 1258.07 663.817C1258.07 650.409 1264.64 642.42 1275.55 642.42C1282.99 642.42 1288.57 646.493 1290.7 653.573H1299.8C1297.82 642.182 1288.21 634.668 1275.51 634.668C1259.26 634.668 1249.01 645.9 1249.01 663.896C1249.01 682.208 1259.3 693.638 1275.63 693.638C1291.1 693.638 1300.23 684.423 1300.23 668.958ZM1312.02 708.193C1320.64 708.193 1324.75 704.949 1328.31 694.864L1343.9 651.081H1334.88L1324.36 684.937H1324.2L1313.68 651.081H1304.43L1319.45 692.728C1319.45 692.768 1318.7 695.22 1318.7 695.299C1317.4 699.57 1315.26 701.232 1311.31 701.232C1310.59 701.232 1309.17 701.232 1308.54 701.073V707.995C1309.17 708.113 1311.31 708.193 1312.02 708.193ZM1348.92 692.689H1357.46V666.981C1357.46 661.641 1361.06 657.686 1366.12 657.686C1370.95 657.686 1373.99 660.732 1373.99 665.517V692.689H1382.38V666.704C1382.38 661.444 1385.9 657.686 1390.96 657.686C1396.02 657.686 1398.91 660.771 1398.91 666.15V692.689H1407.49V664.093C1407.49 655.827 1402.12 650.369 1393.89 650.369C1387.96 650.369 1383.05 653.454 1380.92 658.517H1380.72C1379.06 653.336 1374.86 650.369 1369.09 650.369C1363.47 650.369 1359.12 653.454 1357.26 658.082H1357.07V651.081H1348.92V692.689ZM1442.1 692.689V668.8H1466.62V661.325H1442.1V643.25H1468.88V635.617H1433.24V692.689H1442.1ZM1475.88 692.689H1484.42V635.617H1475.88V692.689ZM1511.08 693.48C1522.98 693.48 1530.81 685.293 1530.81 671.885C1530.81 658.517 1522.94 650.33 1511.08 650.33C1499.21 650.33 1491.34 658.517 1491.34 671.885C1491.34 685.293 1499.17 693.48 1511.08 693.48ZM1511.08 686.44C1504.39 686.44 1500.04 681.14 1500.04 671.885C1500.04 662.67 1504.39 657.37 1511.08 657.37C1517.76 657.37 1522.11 662.67 1522.11 671.885C1522.11 681.14 1517.8 686.44 1511.08 686.44ZM1555.3 693.48C1567.2 693.48 1575.03 685.293 1575.03 671.885C1575.03 658.517 1567.16 650.33 1555.3 650.33C1543.43 650.33 1535.56 658.517 1535.56 671.885C1535.56 685.293 1543.39 693.48 1555.3 693.48ZM1555.3 686.44C1548.61 686.44 1544.26 681.14 1544.26 671.885C1544.26 662.67 1548.61 657.37 1555.3 657.37C1561.98 657.37 1566.33 662.67 1566.33 671.885C1566.33 681.14 1562.02 686.44 1555.3 686.44ZM1581.64 692.689H1590.18V667.772C1590.18 661.879 1593.58 658.2 1599.08 658.2C1600.74 658.2 1602.24 658.398 1602.91 658.675V650.725C1602.28 650.607 1601.21 650.409 1599.99 650.409C1595.08 650.409 1591.37 653.296 1589.98 658.161H1589.78V651.081H1581.64V692.689Z" fill="#1C3269"/>
<g filter="url(#filter3_dd)">
<path d="M1032.15 1256.13C1044.55 1216.21 1081.49 1189 1123.29 1189H1385.5H1620C1672.47 1189 1715 1231.53 1715 1284V1284V1284C1715 1338.12 1671.12 1382 1617 1382H1385.5H1125.51C1082.47 1382 1044.37 1353.34 1031.96 1312.12V1312.12C1026.48 1293.91 1026.51 1274.3 1032.15 1256.13V1256.13Z" fill="white"/>
</g>
<path d="M1222.65 1298.06C1223.12 1308.5 1231.87 1314.95 1245.08 1314.95C1258.8 1314.95 1267.38 1308.07 1267.38 1297.15C1267.38 1288.69 1262.36 1283.86 1250.34 1281.37L1244.17 1280.1C1237.05 1278.6 1234.2 1276.11 1234.2 1272.23C1234.2 1267.45 1238.71 1264.44 1245.04 1264.44C1251.56 1264.44 1256.07 1267.69 1256.54 1273.06H1266.31C1266.08 1262.86 1257.73 1255.98 1245.11 1255.98C1232.74 1255.98 1223.92 1262.78 1223.92 1272.83C1223.92 1281.17 1229.25 1286.55 1240.69 1288.89L1246.82 1290.15C1254.25 1291.69 1257.1 1294.22 1257.1 1298.34C1257.1 1303.08 1252.31 1306.49 1245.43 1306.49C1238.31 1306.49 1233.17 1303.32 1232.42 1298.06H1222.65ZM1301.79 1301.46C1300.72 1304.94 1297.24 1307.24 1292.65 1307.24C1286.21 1307.24 1282.09 1302.73 1282.09 1296V1295.41H1311.4V1292.21C1311.4 1279.47 1303.97 1271.21 1292.06 1271.21C1279.96 1271.21 1272.29 1279.95 1272.29 1293.2C1272.29 1306.56 1279.88 1314.83 1292.46 1314.83C1302.38 1314.83 1309.74 1309.37 1311.01 1301.46H1301.79ZM1292.1 1278.84C1297.76 1278.84 1301.55 1282.99 1301.75 1288.92H1282.17C1282.57 1283.07 1286.56 1278.84 1292.1 1278.84ZM1354.71 1287.03C1354.04 1278.21 1347.2 1271.21 1336.12 1271.21C1323.94 1271.21 1316.03 1279.63 1316.03 1293.04C1316.03 1306.64 1323.94 1314.83 1336.2 1314.83C1346.72 1314.83 1353.96 1308.66 1354.75 1299.29H1345.46C1344.55 1304.03 1341.3 1306.88 1336.32 1306.88C1330.07 1306.88 1326.04 1301.82 1326.04 1293.04C1326.04 1284.42 1330.03 1279.2 1336.24 1279.2C1341.5 1279.2 1344.62 1282.56 1345.42 1287.03H1354.71ZM1363.37 1262.27V1272.08H1357.36V1279.67H1363.37V1302.85C1363.37 1310.99 1366.93 1314.2 1375.99 1314.2C1378.08 1314.2 1380.02 1314.04 1381.09 1313.8V1306.29C1380.46 1306.41 1379.19 1306.49 1378.28 1306.49C1374.8 1306.49 1373.22 1304.9 1373.22 1301.46V1279.67H1381.13V1272.08H1373.22V1262.27H1363.37ZM1393 1265.75C1396 1265.75 1398.37 1263.34 1398.37 1260.41C1398.37 1257.44 1396 1255.07 1393 1255.07C1389.99 1255.07 1387.58 1257.44 1387.58 1260.41C1387.58 1263.34 1389.99 1265.75 1393 1265.75ZM1388.09 1314H1397.94V1272.08H1388.09V1314ZM1424.75 1314.83C1437.05 1314.83 1445.04 1306.64 1445.04 1293.04C1445.04 1279.47 1436.98 1271.21 1424.75 1271.21C1412.53 1271.21 1404.46 1279.51 1404.46 1293.04C1404.46 1306.64 1412.45 1314.83 1424.75 1314.83ZM1424.75 1307.04C1418.51 1307.04 1414.47 1301.98 1414.47 1293.04C1414.47 1284.14 1418.54 1279.04 1424.75 1279.04C1431 1279.04 1435.04 1284.14 1435.04 1293.04C1435.04 1301.98 1431 1307.04 1424.75 1307.04ZM1451.37 1314H1461.22V1289.72C1461.22 1283.7 1464.82 1279.63 1470.48 1279.63C1476.09 1279.63 1478.86 1282.95 1478.86 1288.89V1314H1488.71V1286.91C1488.71 1277.22 1483.45 1271.29 1474.19 1271.29C1467.75 1271.29 1463.28 1274.29 1461.02 1279.27H1460.82V1272.08H1451.37V1314ZM1527.43 1314H1537.43V1256.93H1527.35L1512.44 1267.41V1276.78L1527.19 1266.66H1527.43V1314Z" fill="#07236B"/>
<defs>
<filter id="filter0_dd" x="1023.81" y="477.689" width="3457" height="2680" filterUnits="userSpaceOnUse" color-interpolation-filters="sRGB">
<feFlood flood-opacity="0" result="BackgroundImageFix"/>
<feColorMatrix in="SourceAlpha" type="matrix" values="0 0 0 0 0 0 0 0 0 0 0 0 0 0 0 0 0 0 127 0"/>
<feOffset dx="100" dy="200"/>
<feGaussianBlur stdDeviation="100"/>
<feColorMatrix type="matrix" values="0 0 0 0 0 0 0 0 0 0 0 0 0 0 0 0 0 0 0.25 0"/>
<feBlend mode="normal" in2="BackgroundImageFix" result="effect1_dropShadow"/>
<feColorMatrix in="SourceAlpha" type="matrix" values="0 0 0 0 0 0 0 0 0 0 0 0 0 0 0 0 0 0 127 0"/>
<feOffset dx="20" dy="20"/>
<feGaussianBlur stdDeviation="0.5"/>
<feColorMatrix type="matrix" values="0 0 0 0 0.658333 0 0 0 0 0.795 0 0 0 0 1 0 0 0 1 0"/>
<feBlend mode="normal" in2="effect1_dropShadow" result="effect2_dropShadow"/>
<feBlend mode="normal" in="SourceGraphic" in2="effect2_dropShadow" result="shape"/>
</filter>
<filter id="filter1_i" x="1224.81" y="756.689" width="2823" height="1911" filterUnits="userSpaceOnUse" color-interpolation-filters="sRGB">
<feFlood flood-opacity="0" result="BackgroundImageFix"/>
<feBlend mode="normal" in="SourceGraphic" in2="BackgroundImageFix" result="shape"/>
<feColorMatrix in="SourceAlpha" type="matrix" values="0 0 0 0 0 0 0 0 0 0 0 0 0 0 0 0 0 0 127 0" result="hardAlpha"/>
<feOffset dy="100"/>
<feGaussianBlur stdDeviation="25"/>
<feComposite in2="hardAlpha" operator="arithmetic" k2="-1" k3="1"/>
<feColorMatrix type="matrix" values="0 0 0 0 0 0 0 0 0 0 0 0 0 0 0 0 0 0 0.25 0"/>
<feBlend mode="normal" in2="shape" result="effect1_innerShadow"/>
</filter>
<filter id="filter2_i" x="2245.81" y="756.689" width="1852" height="1911" filterUnits="userSpaceOnUse" color-interpolation-filters="sRGB">
<feFlood flood-opacity="0" result="BackgroundImageFix"/>
<feBlend mode="normal" in="SourceGraphic" in2="BackgroundImageFix" result="shape"/>
<feColorMatrix in="SourceAlpha" type="matrix" values="0 0 0 0 0 0 0 0 0 0 0 0 0 0 0 0 0 0 127 0" result="hardAlpha"/>
<feOffset dx="50" dy="100"/>
<feGaussianBlur stdDeviation="25"/>
<feComposite in2="hardAlpha" operator="arithmetic" k2="-1" k3="1"/>
<feColorMatrix type="matrix" values="0 0 0 0 0 0 0 0 0 0 0 0 0 0 0 0 0 0 0.25 0"/>
<feBlend mode="normal" in2="shape" result="effect1_innerShadow"/>
</filter>
<filter id="filter3_dd" x="1027.89" y="1189" width="887.112" height="393" filterUnits="userSpaceOnUse" color-interpolation-filters="sRGB">
<feFlood flood-opacity="0" result="BackgroundImageFix"/>
<feColorMatrix in="SourceAlpha" type="matrix" values="0 0 0 0 0 0 0 0 0 0 0 0 0 0 0 0 0 0 127 0"/>
<feOffset dx="100" dy="100"/>
<feGaussianBlur stdDeviation="50"/>
<feColorMatrix type="matrix" values="0 0 0 0 0 0 0 0 0 0 0 0 0 0 0 0 0 0 0.4 0"/>
<feBlend mode="normal" in2="BackgroundImageFix" result="effect1_dropShadow"/>
<feColorMatrix in="SourceAlpha" type="matrix" values="0 0 0 0 0 0 0 0 0 0 0 0 0 0 0 0 0 0 127 0"/>
<feOffset dx="10" dy="10"/>
<feColorMatrix type="matrix" values="0 0 0 0 0.658333 0 0 0 0 0.795 0 0 0 0 1 0 0 0 1 0"/>
<feBlend mode="normal" in2="effect1_dropShadow" result="effect2_dropShadow"/>
<feBlend mode="normal" in="SourceGraphic" in2="effect2_dropShadow" result="shape"/>
</filter>
<linearGradient id="paint0_linear" x1="3135.84" y1="1700.04" x2="1133.52" y2="3114.02" gradientUnits="userSpaceOnUse">
<stop stop-color="#4622AC"/>
<stop offset="1" stop-color="#B974FF"/>
</linearGradient>
<linearGradient id="paint1_linear" x1="2175.23" y1="70.0805" x2="1975.12" y2="2636.03" gradientUnits="userSpaceOnUse">
<stop stop-color="#2522AC"/>
<stop offset="1" stop-color="#B974FF"/>
</linearGradient>
<linearGradient id="paint2_linear" x1="4062.16" y1="1012.65" x2="3862.05" y2="3578.6" gradientUnits="userSpaceOnUse">
<stop stop-color="#2522AC"/>
<stop offset="1" stop-color="#988FFF"/>
</linearGradient>
<linearGradient id="paint3_linear" x1="4937.5" y1="2102.86" x2="2384.26" y2="1778.64" gradientUnits="userSpaceOnUse">
<stop stop-color="#4622AC"/>
<stop offset="1" stop-color="#B974FF"/>
</linearGradient>
<linearGradient id="paint4_linear" x1="3053.53" y1="2207.55" x2="500.294" y2="1883.33" gradientUnits="userSpaceOnUse">
<stop stop-color="#988FFF"/>
<stop offset="1" stop-color="#4622AC"/>
</linearGradient>
</defs>
</svg>
