<svg width="5250" height="3960" viewBox="0 0 5250 3960" fill="none" xmlns="http://www.w3.org/2000/svg">
<path d="M1795.34 3129.45C1293.9 3003.81 265.185 1308.05 1183.06 1838.46C2100.93 2368.86 2404.14 1667.19 2905.58 1792.84C3407.02 1918.48 2582.34 2547.74 2432.43 3146.03C2282.51 3744.32 2296.78 3255.1 1795.34 3129.45Z" fill="url(#paint0_linear)" fill-opacity="0.9"/>
<path d="M2196.61 2093.33C1705.05 2410.04 -391.219 2101.36 735.82 1721.85C1862.86 1342.35 1571.8 632.534 2063.35 315.822C2554.91 -0.890431 2378.84 1077.11 2712.91 1595.59C3046.97 2114.07 2688.16 1776.61 2196.61 2093.33Z" fill="url(#paint1_linear)" fill-opacity="0.8"/>
<path d="M3206.31 3040.69C2714.76 3357.4 1495.71 3043.93 2622.75 2664.43C3749.79 2284.92 3458.73 1575.11 3950.28 1258.4C4441.84 941.683 4265.78 2019.69 4599.84 2538.17C4933.9 3056.65 3697.86 2723.98 3206.31 3040.69Z" fill="url(#paint2_linear)" fill-opacity="0.8"/>
<path d="M2915.6 2026.17C2623.08 1519.85 3032.97 -559.003 3357.42 585.102C3681.87 1729.21 4404.95 1472.88 4697.47 1979.21C4989.99 2485.53 3921.79 2257.44 3387.73 2565.98C2853.67 2874.53 3208.12 2532.49 2915.6 2026.17Z" fill="url(#paint3_linear)" fill-opacity="0.9"/>
<path d="M627.311 1998.19C334.79 1491.87 1438.05 -278.587 1762.49 865.518C2086.94 2009.62 2116.66 1444.9 2409.18 1951.22C2701.7 2457.55 1633.5 2229.46 1099.44 2538C565.38 2846.55 919.832 2504.51 627.311 1998.19Z" fill="url(#paint4_linear)" fill-opacity="0.9"/>
<g filter="url(#filter0_dd)">
<rect x="1123.81" y="477.688" width="3057" height="2280" rx="40" fill="white"/>
</g>
<g filter="url(#filter1_i)">
<rect x="1224.81" y="756.688" width="2823" height="1861" rx="40" fill="#404040" fill-opacity="0.62"/>
</g>
<g filter="url(#filter2_i)">
<path d="M2245.81 756.688H4047.81V2617.69H2941.92C2941.92 2617.69 2695.05 2312.19 2775.48 1679.19C2855.92 1046.19 2245.81 756.688 2245.81 756.688Z" fill="#404040"/>
</g>
<text fill="#1C3269" xml:space="preserve" style="white-space: pre" font-family="SF Pro Display" font-size="81" font-weight="500" letter-spacing="0em"><tspan x="1245.81" y="692.981">Gym Floor</tspan></text>
<defs>
<filter id="filter0_dd" x="1023.81" y="477.688" width="3457" height="2680" filterUnits="userSpaceOnUse" color-interpolation-filters="sRGB">
<feFlood flood-opacity="0" result="BackgroundImageFix"/>
<feColorMatrix in="SourceAlpha" type="matrix" values="0 0 0 0 0 0 0 0 0 0 0 0 0 0 0 0 0 0 127 0"/>
<feOffset dx="100" dy="200"/>
<feGaussianBlur stdDeviation="100"/>
<feColorMatrix type="matrix" values="0 0 0 0 0 0 0 0 0 0 0 0 0 0 0 0 0 0 0.25 0"/>
<feBlend mode="normal" in2="BackgroundImageFix" result="effect1_dropShadow"/>
<feColorMatrix in="SourceAlpha" type="matrix" values="0 0 0 0 0 0 0 0 0 0 0 0 0 0 0 0 0 0 127 0"/>
<feOffset dx="20" dy="20"/>
<feGaussianBlur stdDeviation="0.5"/>
<feColorMatrix type="matrix" values="0 0 0 0 0.658333 0 0 0 0 0.795 0 0 0 0 1 0 0 0 1 0"/>
<feBlend mode="normal" in2="effect1_dropShadow" result="effect2_dropShadow"/>
<feBlend mode="normal" in="SourceGraphic" in2="effect2_dropShadow" result="shape"/>
</filter>
<filter id="filter1_i" x="1224.81" y="756.688" width="2823" height="1911" filterUnits="userSpaceOnUse" color-interpolation-filters="sRGB">
<feFlood flood-opacity="0" result="BackgroundImageFix"/>
<feBlend mode="normal" in="SourceGraphic" in2="BackgroundImageFix" result="shape"/>
<feColorMatrix in="SourceAlpha" type="matrix" values="0 0 0 0 0 0 0 0 0 0 0 0 0 0 0 0 0 0 127 0" result="hardAlpha"/>
<feOffset dy="100"/>
<feGaussianBlur stdDeviation="25"/>
<feComposite in2="hardAlpha" operator="arithmetic" k2="-1" k3="1"/>
<feColorMatrix type="matrix" values="0 0 0 0 0 0 0 0 0 0 0 0 0 0 0 0 0 0 0.25 0"/>
<feBlend mode="normal" in2="shape" result="effect1_innerShadow"/>
</filter>
<filter id="filter2_i" x="2245.81" y="756.688" width="1852" height="1911" filterUnits="userSpaceOnUse" color-interpolation-filters="sRGB">
<feFlood flood-opacity="0" result="BackgroundImageFix"/>
<feBlend mode="normal" in="SourceGraphic" in2="BackgroundImageFix" result="shape"/>
<feColorMatrix in="SourceAlpha" type="matrix" values="0 0 0 0 0 0 0 0 0 0 0 0 0 0 0 0 0 0 127 0" result="hardAlpha"/>
<feOffset dx="50" dy="100"/>
<feGaussianBlur stdDeviation="25"/>
<feComposite in2="hardAlpha" operator="arithmetic" k2="-1" k3="1"/>
<feColorMatrix type="matrix" values="0 0 0 0 0 0 0 0 0 0 0 0 0 0 0 0 0 0 0.25 0"/>
<feBlend mode="normal" in2="shape" result="effect1_innerShadow"/>
</filter>
<linearGradient id="paint0_linear" x1="3135.84" y1="1700.04" x2="1133.52" y2="3114.02" gradientUnits="userSpaceOnUse">
<stop stop-color="#4622AC"/>
<stop offset="1" stop-color="#B974FF"/>
</linearGradient>
<linearGradient id="paint1_linear" x1="2175.23" y1="70.0802" x2="1975.12" y2="2636.03" gradientUnits="userSpaceOnUse">
<stop stop-color="#2522AC"/>
<stop offset="1" stop-color="#B974FF"/>
</linearGradient>
<linearGradient id="paint2_linear" x1="4062.16" y1="1012.65" x2="3862.05" y2="3578.6" gradientUnits="userSpaceOnUse">
<stop stop-color="#2522AC"/>
<stop offset="1" stop-color="#988FFF"/>
</linearGradient>
<linearGradient id="paint3_linear" x1="4937.5" y1="2102.86" x2="2384.26" y2="1778.64" gradientUnits="userSpaceOnUse">
<stop stop-color="#4622AC"/>
<stop offset="1" stop-color="#B974FF"/>
</linearGradient>
<linearGradient id="paint4_linear" x1="3053.53" y1="2207.55" x2="500.294" y2="1883.33" gradientUnits="userSpaceOnUse">
<stop stop-color="#988FFF"/>
<stop offset="1" stop-color="#4622AC"/>
</linearGradient>
</defs>
</svg>
